<svg enable-background="new 0 0 512.048 512.048" viewBox="0 0 512.048 512.048" xmlns="http://www.w3.org/2000/svg"><path d="m403.331 245.808c26.667-59.947 51.307-146.453 33.173-193.067-25.707-65.92-80.747-55.04-129.28-45.547-17.28 3.413-35.2 6.933-51.2 6.933s-33.92-3.52-51.2-6.933c-48.533-9.6-103.467-20.373-129.28 45.547-18.133 46.507 6.507 133.12 33.173 193.067.747 1.707 1.067 3.52.853 5.333-2.56 25.067-3.84 50.347-3.733 75.52 0 68.8 10.453 185.387 49.387 185.387 33.387 0 37.973-44.267 42.88-91.2 6.933-67.52 15.253-115.307 57.92-115.307 42.027 0 50.133 47.36 57.067 114.133 4.907 47.467 9.493 92.267 43.733 92.267 39.04 0 49.493-116.587 49.493-185.387 0-25.173-1.173-50.347-3.733-75.52-.32-1.706 0-3.626.747-5.226zm-46.614 244.907c-14.933 0-18.987-38.933-22.507-73.173-6.187-59.413-13.76-133.333-78.293-133.333-65.173 0-72.96 74.56-79.147 134.4-3.52 33.813-7.467 72.107-21.12 72.107-10.24-4.16-28.587-62.4-28.587-164.16-.107-24.533 1.173-48.96 3.627-73.28.533-5.547-.32-11.093-2.56-16.107-31.893-71.788-45.333-144.428-32.746-176.641 11.733-29.973 29.547-39.147 54.827-39.147 14.4 0 31.04 2.987 50.453 6.827 18.347 3.627 37.333 7.36 55.36 7.36s37.013-3.733 55.36-7.36c53.333-10.56 86.933-14.613 105.28 32.32 12.587 32.213-.96 104.853-32.747 176.64-2.24 5.12-3.2 10.667-2.56 16.32 2.453 24.32 3.627 48.747 3.627 73.28-.107 101.547-18.453 159.893-28.267 163.947z"/></svg>